<svg width="77" height="76" viewBox="0 0 77 76" fill="none" xmlns="http://www.w3.org/2000/svg">
<g filter="url(#filter0_di_14083_16427)">
<path d="M53.4409 7.27897C55.8409 9.17897 57.4009 11.589 58.0809 14.349C64.3109 9.82897 66.3009 3.99897 62.7409 1.16897C58.7309 -2.02103 55.5009 2.32897 55.5009 2.32897C55.5009 2.32897 52.2709 -2.02103 48.2609 1.16897C47.2709 1.95897 46.7109 2.97897 46.5609 4.12897C48.9309 4.46897 51.2309 5.52897 53.4409 7.27897Z" fill="url(#paint0_linear_14083_16427)"/>
<path d="M53.8398 27.009C53.7598 26.999 53.6898 26.999 53.6098 26.999C50.9698 26.999 48.8498 28.339 47.4998 29.489C46.1498 28.339 44.0298 26.999 41.3898 26.999C39.4498 26.999 37.5698 27.709 35.7998 29.109C33.4498 30.969 32.2898 33.689 32.5298 36.769C32.7198 39.259 33.7998 41.849 35.5898 44.369C35.2298 44.579 34.8698 44.789 34.4998 44.999C14.4198 33.679 6.9898 16.629 16.7998 8.84904C26.5998 1.06904 34.4998 11.689 34.4998 11.689C34.4998 11.689 42.3998 1.06904 52.1998 8.84904C57.4498 13.009 57.7598 19.829 53.8398 27.009Z" fill="url(#paint1_linear_14083_16427)"/>
<path d="M57.9614 30.6801C52.1714 26.0901 47.5014 32.3601 47.5014 32.3601C47.5014 32.3601 42.8314 26.1001 37.0414 30.6801C31.2514 35.2701 35.6314 45.3301 47.5014 52.0001C59.3714 45.3201 63.7514 35.2701 57.9614 30.6801Z" fill="url(#paint2_linear_14083_16427)"/>
<path d="M34.4998 11.689L34.6202 11.7786L34.6203 11.7783L34.6213 11.7771L34.6252 11.7718L34.6417 11.7502C34.6565 11.7309 34.6788 11.7022 34.7084 11.6649C34.7676 11.5904 34.8561 11.4815 34.9724 11.3453C35.2051 11.073 35.549 10.6919 35.9922 10.2585C36.8792 9.39098 38.1613 8.31676 39.7446 7.4843C41.3274 6.65208 43.2072 6.06354 45.2928 6.16044C47.3768 6.25726 49.6784 7.03891 52.1065 8.96652L52.1066 8.9666C54.6984 11.0202 56.0684 13.7266 56.309 16.8082C56.548 19.8692 55.6727 23.3092 53.7548 26.8514C53.706 26.849 53.6596 26.849 53.6131 26.849H53.6098C50.9817 26.849 48.8662 28.1511 47.4998 29.2928C46.1334 28.1511 44.0179 26.849 41.3898 26.849C39.4107 26.849 37.4987 27.574 35.7067 28.9914L35.7067 28.9914C33.3161 30.8836 32.1365 33.6528 32.3803 36.7807C32.5696 39.2608 33.6285 41.8287 35.373 44.3218C35.084 44.4903 34.7947 44.6585 34.4995 44.8266C24.5182 39.1839 17.6933 32.1303 14.5767 25.5325C13.0148 22.226 12.3872 19.0407 12.7519 16.2069C13.1161 13.3764 14.4711 10.8873 16.893 8.96656L16.8931 8.96652C19.3211 7.03891 21.6228 6.25726 23.7068 6.16044C25.7924 6.06354 27.6722 6.65208 29.255 7.4843C30.8383 8.31676 32.1204 9.39098 33.0074 10.2585C33.4506 10.6919 33.7945 11.073 34.0272 11.3453C34.1435 11.4815 34.232 11.5904 34.2912 11.6649C34.3208 11.7022 34.3431 11.7309 34.3579 11.7502L34.3744 11.7718L34.3783 11.7771L34.3792 11.7783L34.3794 11.7786L34.4998 11.689ZM34.4998 11.689L34.6201 11.7786L34.4998 11.9404L34.3794 11.7786L34.4998 11.689ZM55.3805 2.41842L55.3805 2.41846L55.5009 2.58058L55.6213 2.41846L55.6213 2.41842L55.6213 2.41839L55.6216 2.41805L55.623 2.41615L55.6293 2.40784C55.6351 2.40033 55.6439 2.38895 55.6557 2.37407C55.6793 2.3443 55.7148 2.30053 55.7616 2.24564C55.8553 2.13581 55.9941 1.9817 56.1732 1.80629C56.5319 1.4549 57.0494 1.02102 57.687 0.685461C58.3242 0.350131 59.0773 0.115053 59.9109 0.154274C60.7427 0.193416 61.6669 0.506265 62.6475 1.28636L62.6475 1.28639C64.3646 2.65138 64.7567 4.74244 63.9405 7.07569C63.1382 9.36918 61.1698 11.8801 58.1713 14.0968C57.4558 11.3933 55.896 9.03129 53.534 7.16136C51.3533 5.43457 49.0792 4.3696 46.731 4.00279C46.9027 2.95151 47.4364 2.01886 48.3543 1.28636C49.3349 0.506265 50.259 0.193416 51.0909 0.154274C51.9244 0.115053 52.6776 0.350131 53.3148 0.685461C53.9524 1.02102 54.4698 1.4549 54.8286 1.80629C55.0076 1.9817 55.1464 2.13581 55.2401 2.24564C55.287 2.30053 55.3225 2.3443 55.3461 2.37407C55.3579 2.38895 55.3667 2.40033 55.3724 2.40784L55.3788 2.41615L55.3802 2.41805L55.3804 2.41839L55.3805 2.41842ZM47.3812 32.4498L47.3812 32.4498L47.5015 32.6111L47.6217 32.4497L47.6217 32.4497L47.6218 32.4496L47.6223 32.449L47.6245 32.446L47.6339 32.4336C47.6425 32.4225 47.6554 32.4059 47.6727 32.3841C47.7073 32.3406 47.7591 32.2769 47.8274 32.1971C47.9639 32.0375 48.1659 31.8139 48.4264 31.5594C48.948 31.0499 49.701 30.4197 50.63 29.9316C51.5584 29.4437 52.6585 29.0999 53.8775 29.156C55.0948 29.2121 56.4427 29.6675 57.8683 30.7976C59.2852 31.9209 60.0771 33.3743 60.2902 35.0275C60.5037 36.6839 60.1371 38.5501 59.2183 40.4922C57.388 44.3614 53.3779 48.5052 47.5014 51.8279C41.6249 48.5101 37.6149 44.3664 35.7845 40.4959C34.8658 38.5532 34.4992 36.6861 34.7127 35.0289C34.9258 33.375 35.7177 31.9209 37.1345 30.7977C38.56 29.6701 39.908 29.2158 41.1253 29.1602C42.3444 29.1045 43.4445 29.4481 44.373 29.9354C45.3019 30.4229 46.055 31.0521 46.5765 31.5609C46.837 31.815 47.039 32.0383 47.1756 32.1976C47.2438 32.2773 47.2957 32.3409 47.3302 32.3843C47.3475 32.406 47.3605 32.4227 47.369 32.4338L47.3785 32.4461L47.3807 32.4491L47.3812 32.4497L47.3812 32.4498Z" stroke="white" stroke-opacity="0.14" stroke-width="0.3"/>
</g>
<defs>
<filter id="filter0_di_14083_16427" x="0.500977" y="0" width="75.9985" height="76" filterUnits="userSpaceOnUse" color-interpolation-filters="sRGB">
<feFlood flood-opacity="0" result="BackgroundImageFix"/>
<feColorMatrix in="SourceAlpha" type="matrix" values="0 0 0 0 0 0 0 0 0 0 0 0 0 0 0 0 0 0 127 0" result="hardAlpha"/>
<feOffset dy="12"/>
<feGaussianBlur stdDeviation="6"/>
<feComposite in2="hardAlpha" operator="out"/>
<feColorMatrix type="matrix" values="0 0 0 0 0.623529 0 0 0 0 0.733333 0 0 0 0 0.611765 0 0 0 0.13 0"/>
<feBlend mode="normal" in2="BackgroundImageFix" result="effect1_dropShadow_14083_16427"/>
<feBlend mode="normal" in="SourceGraphic" in2="effect1_dropShadow_14083_16427" result="shape"/>
<feColorMatrix in="SourceAlpha" type="matrix" values="0 0 0 0 0 0 0 0 0 0 0 0 0 0 0 0 0 0 127 0" result="hardAlpha"/>
<feOffset dy="1"/>
<feGaussianBlur stdDeviation="3.6"/>
<feComposite in2="hardAlpha" operator="arithmetic" k2="-1" k3="1"/>
<feColorMatrix type="matrix" values="0 0 0 0 1 0 0 0 0 1 0 0 0 0 1 0 0 0 0.56 0"/>
<feBlend mode="normal" in2="shape" result="effect2_innerShadow_14083_16427"/>
</filter>
<linearGradient id="paint0_linear_14083_16427" x1="38.5002" y1="0" x2="38.5002" y2="52.0001" gradientUnits="userSpaceOnUse">
<stop stop-color="#AECAAB"/>
<stop offset="1" stop-color="#8BB687"/>
</linearGradient>
<linearGradient id="paint1_linear_14083_16427" x1="38.5002" y1="0" x2="38.5002" y2="52.0001" gradientUnits="userSpaceOnUse">
<stop stop-color="#AECAAB"/>
<stop offset="1" stop-color="#8BB687"/>
</linearGradient>
<linearGradient id="paint2_linear_14083_16427" x1="38.5002" y1="0" x2="38.5002" y2="52.0001" gradientUnits="userSpaceOnUse">
<stop stop-color="#AECAAB"/>
<stop offset="1" stop-color="#8BB687"/>
</linearGradient>
</defs>
</svg>
